<?xml version="1.0" standalone="no"?>
<!DOCTYPE svg PUBLIC "-//W3C//DTD SVG 20010904//EN"
 "http://www.w3.org/TR/2001/REC-SVG-20010904/DTD/svg10.dtd">
<svg version="1.0" xmlns="http://www.w3.org/2000/svg"
 width="512.000000pt" height="512.000000pt" viewBox="0 0 512.000000 512.000000"
 preserveAspectRatio="xMidYMid meet">
<metadata>
Created by potrace 1.11, written by Peter Selinger 2001-2013
</metadata>
<g transform="translate(0.000000,512.000000) scale(0.100000,-0.100000)"
fill="#000000" stroke="none">
<path d="M145 5096 c-60 -28 -97 -66 -124 -126 -20 -45 -21 -52 -21 -2410 l0
-2365 24 -50 c28 -60 66 -97 126 -124 45 -20 52 -21 2410 -21 l2365 0 50 24
c60 28 97 66 124 126 20 45 21 52 21 2410 0 2358 -1 2365 -21 2410 -27 60 -64
98 -124 126 l-50 24 -2365 0 -2365 0 -50 -24z m3352 -841 c24 -9 13 -46 -67
-241 -44 -106 -80 -196 -80 -199 0 -7 33 2 75 21 97 43 312 124 330 124 11 0
26 -5 33 -12 9 -9 12 -227 12 -919 0 -812 -2 -909 -16 -923 -8 -9 -20 -16 -26
-16 -5 0 -94 34 -197 75 -176 71 -211 82 -211 70 0 -3 36 -91 80 -195 44 -104
80 -198 80 -208 0 -10 -5 -23 -12 -30 -9 -9 -230 -12 -934 -12 -507 0 -929 3
-938 6 -29 11 -17 56 64 247 44 104 80 191 80 193 0 11 -39 -2 -214 -72 -160
-64 -193 -74 -212 -65 l-24 11 0 913 c0 697 3 916 12 925 21 21 51 13 242 -64
103 -41 190 -73 194 -70 3 3 0 18 -8 34 -7 15 -16 36 -21 47 -4 11 -35 85 -69
165 -62 149 -70 183 -46 197 15 8 1851 7 1873 -2z m-737 -2983 c0 -296 -3
-401 -12 -410 -17 -17 -359 -17 -376 0 -9 9 -12 114 -12 410 l0 398 200 0 200
0 0 -398z"/>
<path d="M1828 3769 c-17 -9 -18 -55 -18 -734 l0 -724 22 -15 c20 -14 106 -16
728 -16 622 0 708 2 728 16 l22 15 0 719 c0 640 -2 720 -16 734 -14 14 -94 16
-732 16 -468 -1 -723 -4 -734 -11z m1372 -739 l0 -640 -640 0 -640 0 0 640 0
640 640 0 640 0 0 -640z"/>
<path d="M2492 3409 c-146 -24 -270 -141 -308 -289 -44 -174 45 -359 214 -442
61 -30 74 -33 162 -33 87 0 101 3 161 33 85 41 168 128 200 209 46 118 23 274
-55 376 -85 112 -232 169 -374 146z"/>
</g>
</svg>
